# xmcd CD database file
#
# Track frame offsets:
#	150
#	13786
#	26778
#	41414
#	55987
#	65122
#	75537
#	88479
#	99954
#	111077
#	125642
#	141133
#	151036
#	162673
#
# Disc length: 2365 seconds
#
# Revision: 0
# Processed by: cddbd v1.5.2PL0 Copyright (c) Steve Scherf et al.
# Submitted via: CDex 1.70beta2
#
DISCID=bd093b0e
DTITLE=Kenny Rogers - Pop Price
DYEAR=1900
DGENRE=Country
TTITLE0=Molly
TTITLE1=Shine On Ruby Mountain 
TTITLE2=Heed the Call
TTITLE3=After All
TTITLE4=Camptown Ladies
TTITLE5=We All Got To Help Peach Other
TTITLE6=Ruby Don't Take Your Love to Town
TTITLE7=Me and Bobby Mcgee
TTITLE8=A Poem for My Little Lady
TTITLE9=For the Good Times
TTITLE10=Good Lady of Toronto
TTITLE11=Where Does Rosie Go
TTITLE12=What Am I Gonna Do Feat: Caroline King
TTITLE13=All God's Lonely Children
EXTD=
EXTT0=
EXTT1=
EXTT2=
EXTT3=
EXTT4=
EXTT5=
EXTT6=
EXTT7=
EXTT8=
EXTT9=
EXTT10=
EXTT11=
EXTT12=
EXTT13=
PLAYORDER=
